<?xml version="1.0" encoding="UTF-8"?>
<svg version="1.1" xmlns="http://www.w3.org/2000/svg" width="500" height="500">
<path d="M0 0 C1.39527951 0.00425592 2.79056613 0.00657933 4.18585205 0.00706482 C7.09770204 0.01320631 10.00877549 0.03579591 12.92041016 0.0715332 C16.65188103 0.11697295 20.38265404 0.13156945 24.11437607 0.13527012 C26.99001941 0.13969679 29.86551658 0.15499438 32.7410965 0.17414665 C34.11740165 0.18301903 35.49372231 0.1897538 36.87004852 0.19430733 C38.78941796 0.2033478 40.70869887 0.22742227 42.62792969 0.25219727 C44.26504913 0.26815697 44.26504913 0.26815697 45.9352417 0.28443909 C49.15298116 0.61051424 50.78635618 1.8686074 53.265625 3.87109375 C55.11339193 6.13880771 55.43713134 7.64185122 55.640625 10.55859375 C55.03878751 12.57904817 54.36756404 14.57970414 53.640625 16.55859375 C53.28826003 18.55532859 52.95227941 20.55510114 52.640625 22.55859375 C52.310625 23.54859375 51.980625 24.53859375 51.640625 25.55859375 C50.89221368 28.87726339 50.17240793 32.20140399 49.45703125 35.52734375 C48.640625 38.55859375 48.640625 38.55859375 46.640625 41.55859375 C46.21910643 44.19657611 46.21910643 44.19657611 46.078125 47.05859375 C45.87245484 50.18142232 45.63511555 52.57512211 44.640625 55.55859375 C44.640625 56.54859375 44.640625 57.53859375 44.640625 58.55859375 C45.49785156 58.14867187 46.35507813 57.73875 47.23828125 57.31640625 C57.72752478 52.37333545 57.72752478 52.37333545 61.640625 51.37109375 C64.74765874 50.52960545 66.92405693 49.2472712 69.640625 47.55859375 C70.21683594 47.41550781 70.79304687 47.27242187 71.38671875 47.125 C75.51648885 46.08718949 79.40753758 44.30353763 83.3515625 42.71484375 C86.640625 41.55859375 86.640625 41.55859375 89.7421875 41.08984375 C92.67530918 40.72862881 92.67530918 40.72862881 95.01953125 39.125 C98.36940745 37.12306206 101.81363481 36.3454634 105.578125 35.49609375 C106.96277567 35.17417217 108.34690185 34.84998552 109.73046875 34.5234375 C110.39216064 34.36738037 111.05385254 34.21132324 111.7355957 34.05053711 C113.51058833 33.59217364 115.25426137 33.01695357 116.9921875 32.43359375 C119.640625 31.55859375 119.640625 31.55859375 122.078125 31.62109375 C124.97003866 31.55055927 126.76443766 30.56523471 129.34375 29.35546875 C133.56871571 27.88966432 138.01208411 27.5343832 142.43359375 26.98828125 C144.92209885 26.654864 147.23156533 26.24006472 149.640625 25.55859375 C149.764375 24.48609375 149.888125 23.41359375 150.015625 22.30859375 C150.55392686 19.07878256 151.15180544 17.35013042 152.640625 14.55859375 C152.785 13.75421875 152.929375 12.94984375 153.078125 12.12109375 C154.02700913 7.79839937 155.77201639 5.30085444 159.12612915 2.43463135 C163.80356514 -0.0621836 167.46729374 0.02399774 172.68505859 0.10449219 C174.17866913 0.10361603 174.17866913 0.10361603 175.70245361 0.10272217 C178.98168237 0.10550072 182.25999325 0.13658286 185.5390625 0.16796875 C187.81734724 0.17543193 190.09563842 0.1811245 192.37393188 0.18511963 C198.36144834 0.20036976 204.3485748 0.23964678 210.3359375 0.28393555 C216.44916509 0.32490131 222.56245588 0.34313347 228.67578125 0.36328125 C240.66423356 0.40614118 252.65239681 0.47438543 264.640625 0.55859375 C264.970625 1.87859375 265.300625 3.19859375 265.640625 4.55859375 C264.526875 4.77515625 264.526875 4.77515625 263.390625 4.99609375 C252.35893598 7.25257559 240.18754613 12.99383129 232.640625 21.55859375 C232.640625 21.88859375 232.640625 22.21859375 232.640625 22.55859375 C233.63642578 22.64947266 233.63642578 22.64947266 234.65234375 22.7421875 C245.98394925 23.81744934 245.98394925 23.81744934 250.015625 25.62109375 C253.32936445 26.80457213 256.13584197 26.62008117 259.640625 26.55859375 C261.6470981 26.85044438 263.65056693 27.17028974 265.640625 27.55859375 C265.640625 28.21859375 265.640625 28.87859375 265.640625 29.55859375 C266.176875 29.33171875 266.713125 29.10484375 267.265625 28.87109375 C269.640625 28.55859375 269.640625 28.55859375 272.328125 29.93359375 C275.34953468 31.41579472 276.79494776 31.80360037 280.015625 32.05859375 C285.3446461 32.49893445 289.89115552 34.14056028 294.625 36.58203125 C296.60008623 37.53895287 298.47161283 38.14365553 300.578125 38.74609375 C307.01916392 40.84022463 312.75234563 44.26338192 318.640625 47.55859375 C320.74361271 48.70658943 322.84768632 49.85259938 324.953125 50.99609375 C326.51582512 51.84989424 328.07840619 52.70391292 329.640625 53.55859375 C329.640625 54.21859375 329.640625 54.87859375 329.640625 55.55859375 C330.34574219 55.78546875 331.05085938 56.01234375 331.77734375 56.24609375 C335.21801514 57.82326372 337.72646242 59.99576875 340.453125 62.55859375 C341.23707642 63.28792114 341.23707642 63.28792114 342.03686523 64.03198242 C348.32468949 69.99889082 354.25813688 76.47820547 357.640625 84.55859375 C357.970625 85.32171875 358.300625 86.08484375 358.640625 86.87109375 C361.47333837 94.48401092 363.640625 101.35959304 363.640625 109.55859375 C363.970625 109.88859375 364.300625 110.21859375 364.640625 110.55859375 C364.74153559 113.29801949 364.77928703 116.00685603 364.765625 118.74609375 C364.76949219 119.50212891 364.77335937 120.25816406 364.77734375 121.03710938 C364.76989935 125.32880729 364.4509379 129.32900594 363.640625 133.55859375 C363.516875 134.83734375 363.393125 136.11609375 363.265625 137.43359375 C362.66322156 142.4860097 360.9152695 147.00930475 358.640625 151.55859375 C358.26808594 152.35007813 357.89554687 153.1415625 357.51171875 153.95703125 C351.83141596 165.75101144 344.91178372 176.28743503 335.640625 185.55859375 C334.76037661 186.59582912 333.88605494 187.63810527 333.015625 188.68359375 C329.46146701 192.84178351 325.77789278 196.97109804 321.640625 200.55859375 C320.980625 200.55859375 320.320625 200.55859375 319.640625 200.55859375 C318.815625 201.54859375 317.990625 202.53859375 317.140625 203.55859375 C316.315625 204.54859375 315.490625 205.53859375 314.640625 206.55859375 C313.980625 206.55859375 313.320625 206.55859375 312.640625 206.55859375 C312.310625 207.54859375 311.980625 208.53859375 311.640625 209.55859375 C309.34526685 211.46840346 307.05177228 213.24366197 304.640625 214.99609375 C303.93744141 215.51526367 303.23425781 216.03443359 302.50976562 216.56933594 C294.63936014 222.35231261 286.64881218 227.96872052 278.640625 233.55859375 C277.650625 232.89859375 276.660625 232.23859375 275.640625 231.55859375 C280.11882611 225.53618536 285.78065729 221.18931536 291.640625 216.55859375 C295.2248023 213.72543626 298.44403269 210.82783588 301.640625 207.55859375 C303.2017669 205.99473683 304.7643745 204.43234225 306.328125 202.87109375 C307.09511719 202.10410156 307.86210937 201.33710938 308.65234375 200.546875 C309.98177083 199.21744792 311.31119792 197.88802083 312.640625 196.55859375 C313.55152057 195.38260783 314.44532551 194.19331498 315.328125 192.99609375 C316.96543964 190.78253974 318.61205048 188.59391867 320.34375 186.453125 C330.80917937 173.51276301 338.78162397 158.38694393 340.359375 141.6796875 C340.640625 139.55859375 340.640625 139.55859375 341.640625 136.55859375 C341.91514439 131.2512189 341.35062626 126.84582483 340.0703125 121.70703125 C339.640625 119.55859375 339.640625 119.55859375 339.765625 116.12109375 C339.44793573 107.06694954 333.69226229 98.45349841 329.640625 90.55859375 C328.97218823 89.22614694 328.30476043 87.8931897 327.640625 86.55859375 C326.980625 86.55859375 326.320625 86.55859375 325.640625 86.55859375 C324.83625 85.25921875 324.83625 85.25921875 324.015625 83.93359375 C320.8097978 78.85469898 315.74372353 75.78540122 310.640625 72.80859375 C309.980625 72.39609375 309.320625 71.98359375 308.640625 71.55859375 C308.640625 70.89859375 308.640625 70.23859375 308.640625 69.55859375 C307.898125 69.26984375 307.155625 68.98109375 306.390625 68.68359375 C302.56104742 67.11694838 298.99057977 65.21666173 295.390625 63.18359375 C288.26142169 59.22292525 281.42543906 56.01050369 273.640625 53.55859375 C271.66070881 52.89415638 269.68158066 52.2273675 267.703125 51.55859375 C255.70601525 47.37442586 255.70601525 47.37442586 243.265625 45.12109375 C239.47855981 44.7312488 236.24338314 43.81172702 232.640625 42.55859375 C228.99340804 41.75093497 228.99340804 41.75093497 225.640625 41.55859375 C223.13110904 44.06810971 223.33011921 45.85346063 222.98828125 49.265625 C222.50011784 52.48530948 221.45878022 55.42412223 220.359375 58.48046875 C219.21729214 61.78257788 218.62982012 64.68393035 218.328125 68.18359375 C217.84285971 72.51863038 216.29577323 76.1257097 214.48046875 80.06640625 C213.48843703 82.57188723 213.48843703 82.57188723 213.640625 85.41796875 C213.640625 89.14824023 212.78465779 92.11953906 211.703125 95.68359375 C211.34347656 96.88242188 210.98382813 98.08125 210.61328125 99.31640625 C210.29230469 100.38632813 209.97132813 101.45625 209.640625 102.55859375 C209.05527052 104.7036816 208.640625 106.34225907 208.640625 108.55859375 C210.11187836 108.57072403 210.11187836 108.57072403 211.612854 108.58309937 C220.85346225 108.66056284 230.09392329 108.74830268 239.33433914 108.84612083 C244.08500494 108.89608017 248.83564855 108.94241029 253.58642578 108.98046875 C258.17064459 109.01732607 262.75467753 109.06368733 267.33873749 109.11665726 C269.0882008 109.13519881 270.83770396 109.15030767 272.58722687 109.16193771 C275.03653523 109.17880425 277.48541813 109.20784006 279.93457031 109.23974609 C280.65889755 109.24190628 281.38322479 109.24406647 282.12950134 109.24629211 C285.78790686 109.30722843 288.52780438 109.54934355 291.640625 111.55859375 C291.640625 112.21859375 291.640625 112.87859375 291.640625 113.55859375 C292.300625 113.88859375 292.960625 114.21859375 293.640625 114.55859375 C294.21095399 122.82836416 292.07613266 129.70432608 289.640625 137.55859375 C288.898148 140.22865528 288.57044596 142.37267056 288.328125 145.18359375 C287.84285971 149.51863038 286.29577323 153.1257097 284.48046875 157.06640625 C283.48843703 159.57188723 283.48843703 159.57188723 283.640625 162.41796875 C283.640625 166.14824023 282.78465779 169.11953906 281.703125 172.68359375 C281.34347656 173.88242188 280.98382813 175.08125 280.61328125 176.31640625 C280.29230469 177.38632813 279.97132813 178.45625 279.640625 179.55859375 C278.90585103 182.22748244 278.55027455 184.44703981 278.265625 187.24609375 C277.80705866 191.20307753 276.70446327 194.74112337 275.359375 198.48046875 C274.21591087 201.78657156 273.6212436 204.7491775 273.265625 208.24609375 C272.80705866 212.20307753 271.70446327 215.74112337 270.359375 219.48046875 C269.66389347 221.49131753 269.14024221 223.49180118 268.640625 225.55859375 C267.35803959 229.5050104 265.86139191 231.90619747 262.640625 234.55859375 C259.2972158 235.70117517 256.0870639 235.69746675 252.57446289 235.71972656 C251.34961685 235.72933411 250.12477081 235.73894165 248.86280823 235.74884033 C247.54296432 235.75309021 246.22312042 235.75734009 244.86328125 235.76171875 C243.49092101 235.76747476 242.11856078 235.77323243 240.74620056 235.7789917 C237.87221911 235.7894811 234.99826547 235.79533761 232.12426758 235.79882812 C228.44782378 235.80431672 224.7717496 235.82836077 221.09542179 235.85680008 C218.26178419 235.8754514 215.42823534 235.88063331 212.59454155 235.882164 C210.58211351 235.88664892 208.56973303 235.90527942 206.55738831 235.9241333 C205.32939011 235.9211322 204.10139191 235.9181311 202.83618164 235.91503906 C201.75792618 235.91868469 200.67967072 235.92233032 199.56874084 235.92608643 C196.20339301 235.50371902 194.32288098 234.61335494 191.640625 232.55859375 C190.06367431 226.97861439 190.12054626 222.16360118 192.578125 216.93359375 C194.55433287 212.28328641 195.07241886 208.24678978 195.36328125 203.23828125 C195.72093979 199.78259452 196.71023502 196.77238696 197.921875 193.53125 C199.10823357 190.27521153 199.65402222 187.40318603 199.953125 183.93359375 C200.43839029 179.59855712 201.98547677 175.9914778 203.80078125 172.05078125 C204.79281297 169.54530027 204.79281297 169.54530027 204.640625 166.69921875 C204.640625 162.96894727 205.49659221 159.99764844 206.578125 156.43359375 C206.93777344 155.23476562 207.29742187 154.0359375 207.66796875 152.80078125 C207.98894531 151.73085937 208.30992187 150.6609375 208.640625 149.55859375 C209.37539897 146.88970506 209.73097545 144.67014769 210.015625 141.87109375 C210.47311147 137.86621219 211.62475375 134.30963324 213.01953125 130.5390625 C213.79024464 128.42743396 213.79024464 128.42743396 213.640625 125.55859375 C212.10633347 125.56192467 212.10633347 125.56192467 210.54104614 125.56532288 C200.91731222 125.5855651 191.29358259 125.60057112 181.66983223 125.61040592 C176.72177368 125.61563199 171.77373227 125.62272466 166.82568359 125.6340332 C162.05355536 125.64487185 157.28144364 125.65087267 152.50930405 125.65347099 C150.68558365 125.65532347 148.86186418 125.65894071 147.03815079 125.66432381 C144.49042025 125.67154718 141.94275861 125.67258414 139.39501953 125.67211914 C138.63544952 125.67571442 137.87587952 125.67930969 137.09329224 125.68301392 C131.86872932 125.67264591 131.86872932 125.67264591 129.640625 124.55859375 C126.86079283 120.19844603 127.7190581 116.42852524 128.640625 111.55859375 C129.27368321 109.54770297 129.93156562 107.54396002 130.640625 105.55859375 C130.640625 104.56859375 130.640625 103.57859375 130.640625 102.55859375 C131.300625 102.22859375 131.960625 101.89859375 132.640625 101.55859375 C133.03569485 99.20773408 133.03569485 99.20773408 133.140625 96.43359375 C133.47512415 91.82228407 134.23650889 87.94645659 135.640625 83.55859375 C135.98123311 81.89339856 136.31620896 80.22701909 136.640625 78.55859375 C136.970625 77.56859375 137.300625 76.57859375 137.640625 75.55859375 C138.1132018 73.39498911 138.5693125 71.22776849 139.015625 69.05859375 C140.15072775 63.68208268 141.45482731 58.40058136 142.9453125 53.11328125 C143.98593526 49.28986953 144.8148148 45.43354933 145.640625 41.55859375 C142.30665117 41.88572688 138.97347543 42.22020977 135.640625 42.55859375 C134.80660156 42.64238281 133.97257813 42.72617188 133.11328125 42.8125 C132.33855469 42.89371094 131.56382812 42.97492188 130.765625 43.05859375 C129.71761719 43.166875 129.71761719 43.166875 128.6484375 43.27734375 C126.59262147 43.56531798 124.64855706 44.03726453 122.640625 44.55859375 C120.64178631 44.89882161 118.64171778 45.23188472 116.640625 45.55859375 C113.13474911 46.20868994 109.75233535 47.06750537 106.328125 48.05859375 C102.95258397 49.00356351 99.75552062 49.74072849 96.265625 50.05859375 C92.4710588 50.58198219 90.84761737 51.6031106 87.640625 53.55859375 C85.41303583 54.15534241 83.18918785 54.61211646 80.921875 55.03125 C78.34449232 55.62704908 76.08352129 56.53983902 73.640625 57.55859375 C71.03940167 58.56728731 68.43599236 59.56745695 65.828125 60.55859375 C65.15458984 60.81898438 64.48105469 61.079375 63.78710938 61.34765625 C59.12455674 63.1145183 54.48812977 64.39373 49.640625 65.55859375 C47.47346943 66.4334329 47.47346943 66.4334329 45.640625 67.55859375 C44.774375 67.88859375 43.908125 68.21859375 43.015625 68.55859375 C39.70639772 71.34531146 39.66259912 74.01170795 39.09765625 78.18359375 C38.640625 80.55859375 38.640625 80.55859375 36.640625 83.55859375 C36.32953027 85.96235439 36.32953027 85.96235439 36.265625 88.62109375 C35.90767618 93.72017606 34.64516403 97.66281318 32.48046875 102.26953125 C31.53600834 104.84373498 31.58003833 106.83811144 31.640625 109.55859375 C32.61701935 109.5497113 33.5934137 109.54082886 34.59939575 109.53167725 C43.80976745 109.45052175 53.02006641 109.39059496 62.2307148 109.35134506 C66.96581065 109.3304877 71.7006174 109.30220396 76.43554688 109.25683594 C81.00672108 109.21331202 85.57761755 109.18944271 90.148983 109.17908478 C91.89128872 109.17170514 93.63357957 109.15729428 95.37576675 109.13567352 C97.8200161 109.10655185 100.26312407 109.1026413 102.70751953 109.10449219 C103.42465622 109.09011108 104.14179291 109.07572998 104.88066101 109.06091309 C109.90532281 109.10196848 112.82247237 110.31766971 116.640625 113.55859375 C118.23380714 118.8360096 117.3505739 122.42874706 115.640625 127.55859375 C115.11011277 129.45174144 114.5898852 131.34779112 114.078125 133.24609375 C113.82933594 134.15746094 113.58054688 135.06882813 113.32421875 136.0078125 C113.09863281 136.84957031 112.87304688 137.69132813 112.640625 138.55859375 C112.455 139.24566406 112.269375 139.93273437 112.078125 140.640625 C111.62678984 142.61924611 111.39635827 144.53950321 111.203125 146.55859375 C110.84055753 149.68933511 110.04852238 151.74279899 108.640625 154.55859375 C108.38170293 156.5328745 108.12622553 158.50801505 107.91796875 160.48828125 C107.49965423 163.61091076 106.53986671 166.54348918 105.640625 169.55859375 C105.31662304 170.95180216 105.00489321 172.34790103 104.703125 173.74609375 C103.25798493 180.40728624 101.56024219 187.00759667 99.8515625 193.60546875 C98.60396548 198.46983692 97.47537585 203.29277877 96.640625 208.24609375 C95.90505558 212.53588519 94.7642871 216.47485267 93.28515625 220.5625 C92.51315224 222.73018378 92.51315224 222.73018378 92.265625 225.80859375 C91.3981782 229.62535965 89.63268566 231.11054412 86.640625 233.55859375 C81.87500625 236.16838365 77.0860605 235.82666011 71.80151367 235.78564453 C70.81567291 235.78593658 69.82983215 235.78622864 68.81411743 235.78652954 C65.56218604 235.78513847 62.31048502 235.76958755 59.05859375 235.75390625 C56.80129624 235.75017533 54.5439971 235.74732873 52.28669739 235.74533081 C46.35026567 235.73770057 40.41393206 235.7180572 34.47753906 235.69592285 C28.41798225 235.67545138 22.35840956 235.6663263 16.29882812 235.65625 C4.41271735 235.63481082 -7.47332066 235.60068213 -19.359375 235.55859375 C-19.689375 234.56859375 -20.019375 233.57859375 -20.359375 232.55859375 C-19.64394531 232.35105469 -18.92851563 232.14351562 -18.19140625 231.9296875 C-7.78732599 228.71290201 7.22066895 223.52660761 13.390625 213.93359375 C14.73772284 211.87702438 15.8848151 210.31440365 17.640625 208.55859375 C18.02125721 206.23250805 18.35332445 203.89804111 18.640625 201.55859375 C19.640625 198.55859375 19.640625 198.55859375 21.140625 195.55859375 C22.52684939 192.40808377 22.87932237 189.67422698 23.078125 186.24609375 C23.33446613 182.24826297 24.01700733 179.21900777 25.640625 175.55859375 C27.24195301 171.94416766 27.918871 169.00581488 28.140625 165.05859375 C28.41677429 160.14313644 29.75618962 156.55489075 31.734375 152.08984375 C32.72341739 149.32734603 32.97639816 146.98183159 33.140625 144.05859375 C33.46743413 138.30675304 35.3086171 133.76674472 37.640625 128.55859375 C37.970625 127.56859375 38.300625 126.57859375 38.640625 125.55859375 C31.2952792 125.44258221 23.95013191 125.35381997 16.60405445 125.29953289 C13.19265626 125.27347315 9.78188626 125.23814485 6.37084961 125.18139648 C2.44652916 125.11651972 -1.47753974 125.09238305 -5.40234375 125.0703125 C-7.23384224 125.03160286 -7.23384224 125.03160286 -9.1023407 124.99211121 C-15.79566511 124.87325792 -15.79566511 124.87325792 -21.52661133 127.94604492 C-22.13142334 128.80818604 -22.73623535 129.67032715 -23.359375 130.55859375 C-26.3532819 133.56275375 -29.36462793 136.5477685 -32.390625 139.51953125 C-33.88032125 140.99077109 -35.36990185 142.46212805 -36.859375 143.93359375 C-37.97892578 145.02800781 -37.97892578 145.02800781 -39.12109375 146.14453125 C-42.47492082 149.46867843 -45.5883621 152.69756726 -48.265625 156.59765625 C-48.9565625 157.57476562 -49.6475 158.551875 -50.359375 159.55859375 C-51.019375 159.55859375 -51.679375 159.55859375 -52.359375 159.55859375 C-52.63265625 160.13480469 -52.9059375 160.71101562 -53.1875 161.3046875 C-54.35444134 163.54910468 -55.66605523 165.54535161 -57.109375 167.62109375 C-60.5622855 172.75017439 -63.49636885 178.0828185 -66.359375 183.55859375 C-66.91238281 184.60015625 -67.46539062 185.64171875 -68.03515625 186.71484375 C-68.84533203 188.2771875 -68.84533203 188.2771875 -69.671875 189.87109375 C-70.16300781 190.81597656 -70.65414062 191.76085937 -71.16015625 192.734375 C-72.41843307 195.6976784 -72.84869057 198.39409622 -73.359375 201.55859375 C-74.019375 202.54859375 -74.679375 203.53859375 -75.359375 204.55859375 C-75.359375 205.54859375 -75.359375 206.53859375 -75.359375 207.55859375 C-75.68400013 209.03969593 -76.01894746 210.51854367 -76.359375 211.99609375 C-77.39393651 217.5708173 -77.61759175 223.03030605 -77.671875 228.68359375 C-77.68927734 229.51818115 -77.70667969 230.35276855 -77.72460938 231.21264648 C-77.71991241 237.1736833 -76.52752801 242.02818245 -74.359375 247.55859375 C-73.740625 249.26015625 -73.740625 249.26015625 -73.109375 250.99609375 C-65.42414188 266.64103259 -52.32352119 278.22859382 -36.609375 285.30859375 C-34.94784956 286.07407311 -33.28638887 286.83969302 -31.625 287.60546875 C-30.90086914 287.93385742 -30.17673828 288.26224609 -29.43066406 288.60058594 C-28.02834357 289.24918396 -26.63695313 289.92185964 -25.2565918 290.6159668 C-22.86877634 291.80234635 -20.42631492 292.70754632 -17.921875 293.62109375 C-16.99503906 293.96269531 -16.06820312 294.30429687 -15.11328125 294.65625 C-12.53153556 295.50218369 -10.02499647 296.05573027 -7.359375 296.55859375 C-6.369375 296.88859375 -5.379375 297.21859375 -4.359375 297.55859375 C-2.25185004 294.39730631 -2.13779202 292.54446924 -1.7734375 288.8671875 C-1.29962974 286.22548574 -0.41534489 284.02378966 0.640625 281.55859375 C2.53451634 277.1144444 3.2269188 273.35758569 3.640625 268.55859375 C3.95540946 267.22075982 4.28650156 265.88655666 4.640625 264.55859375 C4.785 263.54796875 4.929375 262.53734375 5.078125 261.49609375 C5.640625 258.55859375 5.640625 258.55859375 7.640625 255.55859375 C7.7025 254.46546875 7.764375 253.37234375 7.828125 252.24609375 C8.81012241 247.78933625 10.15698896 246.59791411 13.59259224 243.81609726 C17.01565577 241.7143172 20.11949745 241.72160697 24.05444336 241.78564453 C24.8650119 241.7750148 25.67558044 241.76438507 26.51071167 241.75343323 C29.16793977 241.72551274 31.82316277 241.73940582 34.48046875 241.75390625 C36.33136215 241.74264938 38.18224128 241.72876581 40.03309631 241.71237183 C44.88788142 241.67639081 49.74203604 241.67595307 54.59692383 241.68304443 C59.55756857 241.68395848 64.51797847 241.65108259 69.47851562 241.62109375 C79.19928481 241.56728509 88.9197233 241.55104324 98.640625 241.55859375 C98.78371094 240.31078125 98.92679688 239.06296875 99.07421875 237.77734375 C99.48758369 234.17250353 100.36239854 230.96719764 101.640625 227.55859375 C102.300625 227.55859375 102.960625 227.55859375 103.640625 227.55859375 C103.455 226.67171875 103.269375 225.78484375 103.078125 224.87109375 C102.66020016 221.70680564 102.83284758 219.61019733 103.640625 216.55859375 C104.300625 216.55859375 104.960625 216.55859375 105.640625 216.55859375 C105.434375 216.02234375 105.228125 215.48609375 105.015625 214.93359375 C104.50565833 211.70380483 105.54039168 209.61479742 106.640625 206.55859375 C106.805625 205.56859375 106.970625 204.57859375 107.140625 203.55859375 C107.640625 200.55859375 107.640625 200.55859375 108.640625 197.68359375 C109.83755908 193.94317474 110.23687472 190.46151312 110.640625 186.55859375 C111.300625 186.55859375 111.960625 186.55859375 112.640625 186.55859375 C112.599375 185.58921875 112.558125 184.61984375 112.515625 183.62109375 C112.50788421 179.80488395 113.23486607 176.34023525 114.13671875 172.64453125 C114.54249059 170.96482456 114.85653968 169.26310566 115.140625 167.55859375 C115.305625 166.89859375 115.470625 166.23859375 115.640625 165.55859375 C116.300625 165.22859375 116.960625 164.89859375 117.640625 164.55859375 C118.07265367 161.84323468 118.07265367 161.84323468 118.203125 158.68359375 C118.39948824 155.35744091 118.58438108 152.7273255 119.640625 149.55859375 C119.84300781 148.87023437 120.04539063 148.181875 120.25390625 147.47265625 C121.87466458 142.16670998 123.47695067 137.58013947 128.37892151 134.44784546 C131.31172793 133.29473094 133.73900463 133.28965225 136.89038086 133.26806641 C138.78771217 133.24892685 138.78771217 133.24892685 140.72337341 133.22940063 C142.10073697 133.22634322 143.47810258 133.22411533 144.85546875 133.22265625 C146.27267084 133.21622659 147.6898716 133.2094981 149.10707092 133.20248413 C152.07523679 133.19052042 155.04328634 133.18680243 158.01147461 133.18798828 C161.80913307 133.18819158 165.60604407 133.16087564 169.40352535 133.12644386 C172.32983303 133.10417473 175.2559607 133.1001507 178.18234444 133.10120773 C179.58215476 133.09885232 180.98197009 133.09003196 182.3816967 133.074543 C184.34152417 133.05488412 186.30157162 133.06324333 188.26147461 133.07275391 C189.93215248 133.06847885 189.93215248 133.06847885 191.63658142 133.06411743 C195.34455714 133.6744635 197.00322131 134.92456249 199.640625 137.55859375 C200.61040413 140.66188695 201.17347144 142.5058445 199.67578125 145.46484375 C198.53024777 147.78184731 198.31628529 149.49395353 198.140625 152.05859375 C197.9112282 155.407787 197.22223373 157.60461636 195.640625 160.55859375 C195.26752601 162.21681148 194.93361523 163.88436389 194.640625 165.55859375 C194.475625 166.17734375 194.310625 166.79609375 194.140625 167.43359375 C193.43156942 170.44707998 193.05337019 173.49248664 192.640625 176.55859375 C191.980625 176.55859375 191.320625 176.55859375 190.640625 176.55859375 C190.8675 177.07421875 191.094375 177.58984375 191.328125 178.12109375 C191.71466862 181.136134 190.68422542 182.7439356 189.40625 185.421875 C188.15972705 188.9006916 188.06664375 192.43884551 187.8515625 196.10546875 C187.57325741 199.34205384 186.59195226 201.65593922 185.140625 204.55859375 C183.34022396 208.64882523 183.11102313 212.68228271 182.8515625 217.10546875 C182.59305686 220.11179358 181.61077426 222.64628031 180.640625 225.49609375 C179.41659628 229.24468172 178.60357568 232.71094106 178.140625 236.62109375 C177.640625 240.55859375 177.640625 240.55859375 176.640625 243.55859375 C176.1765625 244.98171875 176.1765625 244.98171875 175.703125 246.43359375 C175.3525 247.46484375 175.001875 248.49609375 174.640625 249.55859375 C174.393125 250.40421875 174.145625 251.24984375 173.890625 252.12109375 C172.16952257 255.47724348 169.84911981 257.65579125 166.640625 259.55859375 C163.69902828 260.01984602 161.35718964 260.19678268 158.43212891 260.1262207 C157.23112549 260.1273159 157.23112549 260.1273159 156.00585938 260.12843323 C153.37559802 260.12496684 150.74713706 260.08615316 148.1171875 260.046875 C146.28731249 260.03754344 144.45742495 260.03042895 142.62753296 260.0254364 C137.82351882 260.00639353 133.02026683 259.95731633 128.21655273 259.9019165 C123.30983794 259.85066535 118.40299936 259.82790985 113.49609375 259.80273438 C103.87727027 259.74919479 94.25901114 259.66391501 84.640625 259.55859375 C82.74717295 263.82660809 81.32391865 267.18856327 81.203125 271.87109375 C80.88383164 276.9242582 79.51033144 280.75365341 77.484375 285.35546875 C76.40638004 288.17023336 76.57691157 290.56406262 76.640625 293.55859375 C75.95839129 295.91985772 75.15582488 298.20534961 74.296875 300.5078125 C73.48823714 302.67593538 73.48823714 302.67593538 73.640625 305.55859375 C74.465625 305.39359375 75.290625 305.22859375 76.140625 305.05859375 C85.86284722 303.66970486 85.86284722 303.66970486 89.640625 305.55859375 C89.640625 304.89859375 89.640625 304.23859375 89.640625 303.55859375 C92.610625 303.88859375 95.580625 304.21859375 98.640625 304.55859375 C98.640625 303.89859375 98.640625 303.23859375 98.640625 302.55859375 C99.4140625 302.86796875 99.4140625 302.86796875 100.203125 303.18359375 C102.79360963 303.75877433 102.79360963 303.75877433 105.828125 302.62109375 C109.06298214 301.71957619 110.7983361 301.48633819 114.015625 301.62109375 C118.33442373 301.75397986 121.62357273 300.74591025 125.59765625 299.1171875 C127.98612871 298.46412524 129.32426865 298.77259418 131.640625 299.55859375 C131.640625 298.89859375 131.640625 298.23859375 131.640625 297.55859375 C132.31609375 297.49800781 132.9915625 297.43742187 133.6875 297.375 C135.02554688 297.24931641 135.02554688 297.24931641 136.390625 297.12109375 C137.27234375 297.03988281 138.1540625 296.95867187 139.0625 296.875 C142.63822835 296.43616061 145.82263451 295.50210804 149.265625 294.43359375 C152.640625 293.55859375 152.640625 293.55859375 154.640625 294.55859375 C154.970625 293.89859375 155.300625 293.23859375 155.640625 292.55859375 C157.72014995 292.08132573 159.80237355 291.61374404 161.89453125 291.1953125 C165.98046422 290.24793402 169.88893026 288.84721691 173.84375 287.4609375 C176.43973875 286.62340482 178.96393188 286.06244187 181.640625 285.55859375 C183.64900696 284.91762078 185.64890318 284.24959928 187.640625 283.55859375 C188.65125 283.22859375 189.661875 282.89859375 190.703125 282.55859375 C195.69988694 280.85756841 200.46671475 278.75451687 205.26171875 276.55859375 C207.640625 275.55859375 207.640625 275.55859375 210.421875 274.640625 C213.50315537 273.60480623 216.50398416 272.45873127 219.51953125 271.24609375 C220.60556641 270.81039063 221.69160156 270.3746875 222.81054688 269.92578125 C223.93009766 269.47460938 225.04964844 269.0234375 226.203125 268.55859375 C227.88825195 267.88183594 227.88825195 267.88183594 229.60742188 267.19140625 C231.69636316 266.35235437 233.78501939 265.51259217 235.87329102 264.671875 C237.67775053 263.94595216 239.48557873 263.22833107 241.29711914 262.52026367 C244.49838013 261.20660943 247.48658661 259.53343383 250.515625 257.87109375 C255.79020178 255.0082758 261.11545759 252.35531499 266.578125 249.87109375 C271.08008266 247.81338222 275.37056975 245.6676793 279.5 242.9296875 C282.41668177 241.06152089 285.43594953 239.38208629 288.453125 237.68359375 C292.90824236 235.17294887 297.2406854 232.55839755 301.515625 229.74609375 C305.77895576 226.97966579 309.80711505 225.10896487 314.640625 223.55859375 C314.310625 224.87859375 313.980625 226.19859375 313.640625 227.55859375 C312.980625 227.55859375 312.320625 227.55859375 311.640625 227.55859375 C311.640625 228.21859375 311.640625 228.87859375 311.640625 229.55859375 C309.21413469 231.3592739 306.79323203 233.03695924 304.265625 234.68359375 C303.56695312 235.15152344 302.86828125 235.61945313 302.1484375 236.1015625 C296.90745718 239.55859375 296.90745718 239.55859375 294.640625 239.55859375 C294.640625 240.21859375 294.640625 240.87859375 294.640625 241.55859375 C292.47265625 243.00390625 292.47265625 243.00390625 289.453125 244.68359375 C283.75665893 247.90597338 278.19405814 251.2870191 272.6484375 254.76171875 C269.70686308 256.51902295 266.70892704 258.03705219 263.640625 259.55859375 C262.37761204 260.32933 261.12592062 261.11917319 259.890625 261.93359375 C254.46888213 265.38094471 248.74654334 268.52328764 242.640625 270.55859375 C241.980625 270.22859375 241.320625 269.89859375 240.640625 269.55859375 C240.310625 270.54859375 239.980625 271.53859375 239.640625 272.55859375 C237.48272217 273.83614336 235.40134181 274.9350601 233.140625 275.99609375 C232.18820923 276.45568481 232.18820923 276.45568481 231.21655273 276.92456055 C229.36307603 277.81401294 227.50314754 278.6882755 225.640625 279.55859375 C224.75503906 279.97882813 223.86945313 280.3990625 222.95703125 280.83203125 C219.71096173 282.32848618 216.66076908 283.55309991 213.203125 284.49609375 C209.11659458 285.71488352 205.684251 287.55782646 201.97265625 289.6328125 C199.33603873 290.67950991 198.24864581 290.54784302 195.640625 289.55859375 C195.640625 290.21859375 195.640625 290.87859375 195.640625 291.55859375 C191.01424531 293.63574381 186.52562088 295.16288064 181.640625 296.55859375 C180.4038576 297.06111187 179.17441875 297.58205792 177.953125 298.12109375 C171.59964139 300.87826588 171.59964139 300.87826588 167.640625 299.55859375 C167.310625 300.21859375 166.980625 300.87859375 166.640625 301.55859375 C162.23477621 303.71832355 158.49966053 304.80274378 153.640625 305.55859375 C153.03476562 305.86410156 152.42890625 306.16960937 151.8046875 306.484375 C149.31662132 307.7194259 146.88077802 308.44826046 144.203125 309.18359375 C143.27628906 309.44398438 142.34945312 309.704375 141.39453125 309.97265625 C138.640625 310.55859375 138.640625 310.55859375 136.01171875 310.5546875 C132.49367155 310.56048329 129.82336014 312.13772985 126.640625 313.55859375 C124.20653929 314.15359248 122.13617169 314.55859375 119.640625 314.55859375 C113.76360986 314.96331596 113.76360986 314.96331596 108.140625 316.55859375 C105.01014824 317.81078446 102.06948375 318.03297246 98.7265625 318.3125 C96.44931182 318.50964409 96.44931182 318.50964409 93.640625 319.55859375 C92.980625 319.55859375 92.320625 319.55859375 91.640625 319.55859375 C90.24393143 319.71789078 88.84820193 319.88570986 87.453125 320.05859375 C84.54256979 320.40320349 81.96484872 320.53529112 79.015625 320.43359375 C74.57445037 320.5980817 72.4126419 321.14450293 68.640625 323.55859375 C67.7787689 327.0205428 67.7787689 327.0205428 67.73828125 329.4609375 C67.58955966 332.6554772 66.57135926 335.50785368 65.640625 338.55859375 C65.11441706 340.45294234 64.59394307 342.34888973 64.078125 344.24609375 C63.82933594 345.15746094 63.58054688 346.06882812 63.32421875 347.0078125 C63.09863281 347.84957031 62.87304688 348.69132812 62.640625 349.55859375 C62.45113281 350.25855469 62.26164063 350.95851563 62.06640625 351.6796875 C61.53968716 353.78847364 61.53968716 353.78847364 61.390625 356.93359375 C60.41604795 361.64404949 59.06580825 363.21125557 55.640625 366.55859375 C51.84131365 368.46903709 48.70237797 368.81907693 44.47680664 368.84912109 C43.25526382 368.8618808 42.03372101 368.8746405 40.77516174 368.88778687 C39.46361618 368.89001251 38.15207062 368.89223816 36.80078125 368.89453125 C35.43224449 368.90096401 34.06370909 368.90769273 32.69517517 368.91470337 C29.83133761 368.92665479 26.96762049 368.93038632 24.10375977 368.92919922 C20.44410034 368.92899593 16.78521662 368.95631629 13.125741 368.99074364 C10.30061838 369.01303904 7.47568185 369.017036 4.65048027 369.01597977 C2.64860659 369.01946967 0.64679098 369.04111203 -1.35496521 369.06307983 C-12.74710626 369.00584207 -12.74710626 369.00584207 -17.359375 364.55859375 C-19.57897654 358.33869339 -16.25639004 349.57160932 -14.359375 343.55859375 C-13.99585937 342.90503906 -13.63234375 342.25148438 -13.2578125 341.578125 C-12.17043164 339.50227547 -12.17043164 339.50227547 -12.359375 336.76953125 C-12.359375 332.93137254 -11.46672761 329.85169926 -10.359375 326.18359375 C-9.8025 324.31574219 -9.8025 324.31574219 -9.234375 322.41015625 C-8.80125 320.99863281 -8.80125 320.99863281 -8.359375 319.55859375 C-10.009375 319.55859375 -11.659375 319.55859375 -13.359375 319.55859375 C-13.359375 318.89859375 -13.359375 318.23859375 -13.359375 317.55859375 C-14.3803125 317.89890625 -14.3803125 317.89890625 -15.421875 318.24609375 C-18.7533965 318.60051093 -20.38959425 317.74462333 -23.34375 316.3125 C-25.71292007 315.42635693 -27.7756108 315.27190557 -30.296875 315.12109375 C-34.68327456 314.80304665 -37.55548616 313.67140974 -41.3515625 311.53515625 C-44.24124428 310.129669 -47.19120912 309.66165924 -50.328125 309.0546875 C-53.0280278 308.39528816 -55.04059893 307.06266472 -57.359375 305.55859375 C-58.266875 305.26984375 -59.174375 304.98109375 -60.109375 304.68359375 C-70.21518479 301.18542882 -81.21432041 294.47608667 -88.359375 286.55859375 C-88.96136719 285.99785156 -89.56335938 285.43710937 -90.18359375 284.859375 C-101.11890115 274.59060062 -106.16703331 263.34363071 -107.359375 248.55859375 C-107.689375 248.55859375 -108.019375 248.55859375 -108.359375 248.55859375 C-108.38627604 245.7668632 -108.40616553 242.97539027 -108.421875 240.18359375 C-108.43025391 239.38953125 -108.43863281 238.59546875 -108.44726562 237.77734375 C-108.47265625 231.78515625 -108.47265625 231.78515625 -107.359375 229.55859375 C-107.22973919 228.06057998 -107.13001728 226.55990586 -107.046875 225.05859375 C-106.6128249 220.20703379 -105.26924348 216.31882202 -103.3359375 211.875 C-102.22123483 209.3631172 -102.22123483 209.3631172 -101.296875 205.80859375 C-98.92597697 197.58948059 -93.46047508 186.65969383 -87.359375 180.55859375 C-86.20284421 178.94118979 -85.05894693 177.31473643 -83.921875 175.68359375 C-79.20778399 169.16229244 -73.92227683 163.35176403 -68.359375 157.55859375 C-67.88580566 157.06311035 -67.41223633 156.56762695 -66.92431641 156.05712891 C-61.03768517 149.92766654 -61.03768517 149.92766654 -58.359375 147.55859375 C-57.699375 147.55859375 -57.039375 147.55859375 -56.359375 147.55859375 C-55.885 146.75421875 -55.410625 145.94984375 -54.921875 145.12109375 C-53.359375 142.55859375 -53.359375 142.55859375 -50.359375 141.55859375 C-48.67003578 139.91491235 -47.00677576 138.24430615 -45.359375 136.55859375 C-43.37677074 134.87127098 -41.3761408 133.20493318 -39.359375 131.55859375 C-38.23332446 130.62235583 -37.10829043 129.6848937 -35.984375 128.74609375 C-35.118125 128.02421875 -34.251875 127.30234375 -33.359375 126.55859375 C-37.319375 126.22859375 -41.279375 125.89859375 -45.359375 125.55859375 C-45.359375 124.89859375 -45.359375 124.23859375 -45.359375 123.55859375 C-46.349375 123.22859375 -47.339375 122.89859375 -48.359375 122.55859375 C-48.4340913 118.67334595 -48.37903845 115.29735972 -47.359375 111.55859375 C-47.25625 110.36234375 -47.153125 109.16609375 -47.046875 107.93359375 C-46.66519445 104.54852527 -45.73041832 101.85940151 -44.359375 98.74609375 C-42.39649224 94.16837075 -41.98028745 90.21083538 -41.703125 85.27734375 C-41.23072146 81.54106124 -39.78045872 78.50903986 -38.265625 75.08984375 C-37.27658261 72.32734603 -37.02360184 69.98183159 -36.859375 67.05859375 C-36.637621 63.11137262 -35.96070301 60.17301984 -34.359375 56.55859375 C-32.36564127 52.04946837 -31.92059359 48.12646748 -31.63671875 43.23828125 C-31.27906021 39.78259452 -30.28976498 36.77238696 -29.078125 33.53125 C-27.89176643 30.27521153 -27.34597778 27.40318603 -27.046875 23.93359375 C-26.54878787 19.57329 -25.03243391 15.862568 -23.296875 11.85546875 C-22.3131739 9.65361318 -22.3131739 9.65361318 -21.96734619 7.58473206 C-21.08802966 4.65430224 -19.2634758 3.22019982 -16.76843262 1.56881714 C-11.48260355 -0.64776254 -5.63741559 -0.08603098 0 0 Z M142.640625 39.55859375 C142.640625 39.88859375 142.640625 40.21859375 142.640625 40.55859375 C144.290625 40.55859375 145.940625 40.55859375 147.640625 40.55859375 C147.640625 40.22859375 147.640625 39.89859375 147.640625 39.55859375 C145.990625 39.55859375 144.340625 39.55859375 142.640625 39.55859375 Z M214.640625 124.55859375 C215.640625 127.55859375 215.640625 127.55859375 215.640625 127.55859375 Z M107.640625 203.55859375 C108.640625 205.55859375 108.640625 205.55859375 108.640625 205.55859375 Z M-107.359375 235.55859375 C-107.359375 238.52859375 -107.359375 241.49859375 -107.359375 244.55859375 C-107.029375 244.55859375 -106.699375 244.55859375 -106.359375 244.55859375 C-106.359375 241.58859375 -106.359375 238.61859375 -106.359375 235.55859375 C-106.689375 235.55859375 -107.019375 235.55859375 -107.359375 235.55859375 Z " fill="#2C95C9" transform="translate(121.359375,67.44140625)"/>
<path d="M0 0 C1.49361053 -0.00087616 1.49361053 -0.00087616 3.01739502 -0.00177002 C6.29662377 0.00100853 9.57493465 0.03209067 12.85400391 0.06347656 C15.13228865 0.07093974 17.41057983 0.07663231 19.68887329 0.08062744 C25.67638975 0.09587757 31.66351621 0.13515459 37.65087891 0.17944336 C43.76410649 0.22040912 49.87739728 0.23864128 55.99072266 0.25878906 C67.97917497 0.30164899 79.96733822 0.36989325 91.95556641 0.45410156 C92.28556641 1.77410156 92.61556641 3.09410156 92.95556641 4.45410156 C91.84181641 4.67066406 91.84181641 4.67066406 90.70556641 4.89160156 C79.67387739 7.14808341 67.50248753 12.8893391 59.95556641 21.45410156 C59.95556641 21.78410156 59.95556641 22.11410156 59.95556641 22.45410156 C60.61943359 22.5146875 61.28330078 22.57527344 61.96728516 22.63769531 C73.29889066 23.71295715 73.29889066 23.71295715 77.33056641 25.51660156 C80.64430586 26.70007994 83.45078337 26.51558898 86.95556641 26.45410156 C88.96203951 26.7459522 90.96550834 27.06579755 92.95556641 27.45410156 C92.95556641 28.11410156 92.95556641 28.77410156 92.95556641 29.45410156 C93.49181641 29.22722656 94.02806641 29.00035156 94.58056641 28.76660156 C96.95556641 28.45410156 96.95556641 28.45410156 99.64306641 29.82910156 C102.66447608 31.31130254 104.10988916 31.69910818 107.33056641 31.95410156 C112.65958751 32.39444226 117.20609692 34.03606809 121.93994141 36.47753906 C123.91502764 37.43446069 125.78655424 38.03916334 127.89306641 38.64160156 C134.33410533 40.73573244 140.06728703 44.15888973 145.95556641 47.45410156 C148.05855412 48.60209724 150.16262773 49.7481072 152.26806641 50.89160156 C153.83076653 51.74540206 155.39334759 52.59942073 156.95556641 53.45410156 C156.95556641 54.11410156 156.95556641 54.77410156 156.95556641 55.45410156 C157.66068359 55.68097656 158.36580078 55.90785156 159.09228516 56.14160156 C162.53295654 57.71877153 165.04140382 59.89127656 167.76806641 62.45410156 C168.55201782 63.18342896 168.55201782 63.18342896 169.35180664 63.92749023 C175.6396309 69.89439863 181.57307829 76.37371328 184.95556641 84.45410156 C185.28556641 85.21722656 185.61556641 85.98035156 185.95556641 86.76660156 C188.78827977 94.37951874 190.95556641 101.25510085 190.95556641 109.45410156 C191.28556641 109.78410156 191.61556641 110.11410156 191.95556641 110.45410156 C192.056477 113.19352731 192.09422844 115.90236384 192.08056641 118.64160156 C192.08443359 119.39763672 192.08830078 120.15367187 192.09228516 120.93261719 C192.08484075 125.2243151 191.76587931 129.22451375 190.95556641 133.45410156 C190.83181641 134.73285156 190.70806641 136.01160156 190.58056641 137.32910156 C189.97816297 142.38151751 188.2302109 146.90481257 185.95556641 151.45410156 C185.58302734 152.24558594 185.21048828 153.03707031 184.82666016 153.85253906 C179.14635736 165.64651925 172.22672513 176.18294284 162.95556641 185.45410156 C162.07531801 186.49133693 161.20099635 187.53361308 160.33056641 188.57910156 C156.77640842 192.73729133 153.09283419 196.86660585 148.95556641 200.45410156 C148.29556641 200.45410156 147.63556641 200.45410156 146.95556641 200.45410156 C146.13056641 201.44410156 145.30556641 202.43410156 144.45556641 203.45410156 C143.63056641 204.44410156 142.80556641 205.43410156 141.95556641 206.45410156 C141.29556641 206.45410156 140.63556641 206.45410156 139.95556641 206.45410156 C139.62556641 207.44410156 139.29556641 208.43410156 138.95556641 209.45410156 C136.66020825 211.36391128 134.36671368 213.13916978 131.95556641 214.89160156 C131.25238281 215.41077148 130.54919922 215.92994141 129.82470703 216.46484375 C121.95430155 222.24782042 113.96375359 227.86422833 105.95556641 233.45410156 C104.96556641 232.79410156 103.97556641 232.13410156 102.95556641 231.45410156 C107.43376752 225.43169317 113.0955987 221.08482317 118.95556641 216.45410156 C122.53974371 213.62094407 125.7589741 210.72334369 128.95556641 207.45410156 C130.5167083 205.89024464 132.07931591 204.32785006 133.64306641 202.76660156 C134.41005859 201.99960937 135.17705078 201.23261719 135.96728516 200.44238281 C137.29671224 199.11295573 138.62613932 197.78352865 139.95556641 196.45410156 C140.86646197 195.27811565 141.76026691 194.08882279 142.64306641 192.89160156 C144.28038104 190.67804755 145.92699189 188.48942648 147.65869141 186.34863281 C158.12412077 173.40827083 166.09656538 158.28245174 167.67431641 141.57519531 C167.95556641 139.45410156 167.95556641 139.45410156 168.95556641 136.45410156 C169.23008579 131.14672671 168.66556767 126.74133265 167.38525391 121.60253906 C166.95556641 119.45410156 166.95556641 119.45410156 167.08056641 116.01660156 C166.76287714 106.96245735 161.0072037 98.34900622 156.95556641 90.45410156 C156.28712963 89.12165475 155.61970183 87.78869752 154.95556641 86.45410156 C154.29556641 86.45410156 153.63556641 86.45410156 152.95556641 86.45410156 C152.15119141 85.15472656 152.15119141 85.15472656 151.33056641 83.82910156 C148.12473921 78.75020679 143.05866493 75.68090904 137.95556641 72.70410156 C137.29556641 72.29160156 136.63556641 71.87910156 135.95556641 71.45410156 C135.95556641 70.79410156 135.95556641 70.13410156 135.95556641 69.45410156 C135.21306641 69.16535156 134.47056641 68.87660156 133.70556641 68.57910156 C129.87598883 67.01245619 126.30552117 65.11216954 122.70556641 63.07910156 C115.5763631 59.11843306 108.74038047 55.9060115 100.95556641 53.45410156 C98.97565022 52.78966419 96.99652207 52.12287531 95.01806641 51.45410156 C83.02095665 47.26993367 83.02095665 47.26993367 70.58056641 45.01660156 C66.79350122 44.62675662 63.55832455 43.70723483 59.95556641 42.45410156 C56.30834945 41.64644278 56.30834945 41.64644278 52.95556641 41.45410156 C50.44605045 43.96361752 50.64506062 45.74896844 50.30322266 49.16113281 C49.81505925 52.3808173 48.77372163 55.31963005 47.67431641 58.37597656 C46.53223355 61.67808569 45.94476153 64.57943816 45.64306641 68.07910156 C45.15780111 72.41413819 43.61071463 76.02121751 41.79541016 79.96191406 C40.80337844 82.46739504 40.80337844 82.46739504 40.95556641 85.31347656 C40.95556641 89.04374804 40.0995992 92.01504687 39.01806641 95.57910156 C38.65841797 96.77792969 38.29876953 97.97675781 37.92822266 99.21191406 C37.60724609 100.28183594 37.28626953 101.35175781 36.95556641 102.45410156 C36.37021192 104.59918942 35.95556641 106.23776688 35.95556641 108.45410156 C37.42681976 108.46623184 37.42681976 108.46623184 38.92779541 108.47860718 C48.16840365 108.55607065 57.40886469 108.64381049 66.64928055 108.74162865 C71.39994635 108.79158798 76.15058996 108.8379181 80.90136719 108.87597656 C85.485586 108.91283388 90.06961894 108.95919514 94.65367889 109.01216507 C96.40314221 109.03070663 98.15264536 109.04581548 99.90216827 109.05744553 C102.35147663 109.07431207 104.80035954 109.10334787 107.24951172 109.13525391 C107.97383896 109.13741409 108.6981662 109.13957428 109.44444275 109.14179993 C113.10284827 109.20273625 115.84274578 109.44485136 118.95556641 111.45410156 C118.95556641 112.11410156 118.95556641 112.77410156 118.95556641 113.45410156 C119.61556641 113.78410156 120.27556641 114.11410156 120.95556641 114.45410156 C121.5258954 122.72387197 119.39107406 129.5998339 116.95556641 137.45410156 C116.2130894 140.12416309 115.88538737 142.26817838 115.64306641 145.07910156 C115.15780111 149.41413819 113.61071463 153.02121751 111.79541016 156.96191406 C110.80337844 159.46739504 110.80337844 159.46739504 110.95556641 162.31347656 C110.95556641 166.04374804 110.0995992 169.01504687 109.01806641 172.57910156 C108.65841797 173.77792969 108.29876953 174.97675781 107.92822266 176.21191406 C107.60724609 177.28183594 107.28626953 178.35175781 106.95556641 179.45410156 C106.22079243 182.12299025 105.86521596 184.34254762 105.58056641 187.14160156 C105.12200006 191.09858534 104.01940467 194.63663119 102.67431641 198.37597656 C101.53085228 201.68207937 100.93618501 204.64468531 100.58056641 208.14160156 C100.12200006 212.09858534 99.01940467 215.63663119 97.67431641 219.37597656 C96.97883487 221.38682534 96.45518362 223.38730899 95.95556641 225.45410156 C94.672981 229.40051821 93.17633332 231.80170528 89.95556641 234.45410156 C86.61215721 235.59668298 83.4020053 235.59297457 79.8894043 235.61523438 C78.66455826 235.62484192 77.43971222 235.63444946 76.17774963 235.64434814 C74.85790573 235.64859802 73.53806183 235.6528479 72.17822266 235.65722656 C70.80586242 235.66298257 69.43350219 235.66874024 68.06114197 235.67449951 C65.18716051 235.68498891 62.31320687 235.69084542 59.43920898 235.69433594 C55.76276519 235.69982453 52.08669101 235.72386858 48.4103632 235.75230789 C45.5767256 235.77095921 42.74317675 235.77614112 39.90948296 235.77767181 C37.89705491 235.78215674 35.88467443 235.80078723 33.87232971 235.81964111 C32.64433151 235.81664001 31.41633331 235.81363892 30.15112305 235.81054688 C29.07286758 235.8141925 27.99461212 235.81783813 26.88368225 235.82159424 C23.51833442 235.39922684 21.63782239 234.50886276 18.95556641 232.45410156 C17.37861572 226.8741222 17.43548766 222.05910899 19.89306641 216.82910156 C21.86927428 212.17879422 22.38736026 208.14229759 22.67822266 203.13378906 C23.0358812 199.67810234 24.02517642 196.66789477 25.23681641 193.42675781 C26.42317498 190.17071934 26.96896362 187.29869384 27.26806641 183.82910156 C27.7533317 179.49406493 29.30041818 175.88698561 31.11572266 171.94628906 C32.10775437 169.44080808 32.10775437 169.44080808 31.95556641 166.59472656 C31.95556641 162.86445509 32.81153361 159.89315625 33.89306641 156.32910156 C34.25271484 155.13027344 34.61236328 153.93144531 34.98291016 152.69628906 C35.30388672 151.62636719 35.62486328 150.55644531 35.95556641 149.45410156 C36.69034038 146.78521288 37.04591685 144.5656555 37.33056641 141.76660156 C37.78805288 137.76172001 38.93969516 134.20514106 40.33447266 130.43457031 C41.10518605 128.32294177 41.10518605 128.32294177 40.95556641 125.45410156 C39.42127487 125.45743248 39.42127487 125.45743248 37.85598755 125.46083069 C28.23225362 125.48107292 18.60852399 125.49607894 8.98477364 125.50591373 C4.03671509 125.5111398 -0.91132632 125.51823247 -5.859375 125.52954102 C-10.63150324 125.54037966 -15.40361495 125.54638048 -20.17575455 125.54897881 C-21.99947495 125.55083128 -23.82319441 125.55444852 -25.64690781 125.55983162 C-28.19463835 125.567055 -30.74229998 125.56809195 -33.29003906 125.56762695 C-34.04960907 125.57122223 -34.80917908 125.5748175 -35.59176636 125.57852173 C-40.81632927 125.56815372 -40.81632927 125.56815372 -43.04443359 124.45410156 C-45.82426576 120.09395384 -44.96600049 116.32403305 -44.04443359 111.45410156 C-43.41137538 109.44321078 -42.75349298 107.43946783 -42.04443359 105.45410156 C-42.04443359 104.46410156 -42.04443359 103.47410156 -42.04443359 102.45410156 C-41.38443359 102.12410156 -40.72443359 101.79410156 -40.04443359 101.45410156 C-39.64936374 99.10324189 -39.64936374 99.10324189 -39.54443359 96.32910156 C-39.20993445 91.71779189 -38.4485497 87.8419644 -37.04443359 83.45410156 C-36.70382549 81.78890638 -36.36884963 80.1225269 -36.04443359 78.45410156 C-35.71443359 77.46410156 -35.38443359 76.47410156 -35.04443359 75.45410156 C-34.57185679 73.29049692 -34.11574609 71.1232763 -33.66943359 68.95410156 C-32.53433084 63.57759049 -31.23023129 58.29608917 -29.73974609 53.00878906 C-28.69912333 49.18537734 -27.8702438 45.32905714 -27.04443359 41.45410156 C-30.37840742 41.78123469 -33.71158316 42.11571758 -37.04443359 42.45410156 C-37.87845703 42.53789063 -38.71248047 42.62167969 -39.57177734 42.70800781 C-40.34650391 42.78921875 -41.12123047 42.87042969 -41.91943359 42.95410156 C-42.96744141 43.06238281 -42.96744141 43.06238281 -44.03662109 43.17285156 C-46.09243713 43.46082579 -48.03650153 43.93277235 -50.04443359 44.45410156 C-52.04327228 44.79432942 -54.04334081 45.12739254 -56.04443359 45.45410156 C-59.55030949 46.10419775 -62.93272324 46.96301318 -66.35693359 47.95410156 C-69.73247463 48.89907133 -72.92953798 49.63623631 -76.41943359 49.95410156 C-80.21399979 50.47749 -81.83744123 51.49861841 -85.04443359 53.45410156 C-87.27202277 54.05085022 -89.49587074 54.50762427 -91.76318359 54.92675781 C-94.34056627 55.52255689 -96.6015373 56.43534683 -99.04443359 57.45410156 C-101.64565692 58.46279512 -104.24906623 59.46296477 -106.85693359 60.45410156 C-107.53046875 60.71449219 -108.20400391 60.97488281 -108.89794922 61.24316406 C-113.5605852 63.0100577 -118.19824992 64.28433309 -123.04443359 65.45410156 C-125.19471663 66.40389053 -125.19471663 66.40389053 -127.04443359 67.45410156 C-128.70584123 68.13376832 -130.37143401 68.80349061 -132.04443359 69.45410156 C-132.04443359 68.79410156 -132.04443359 68.13410156 -132.04443359 67.45410156 C-136.15084524 69.07346867 -140.25415577 70.70055224 -144.35693359 72.32910156 C-145.52417969 72.78929687 -146.69142578 73.24949219 -147.89404297 73.72363281 C-149.01230469 74.16835937 -150.13056641 74.61308594 -151.28271484 75.07128906 C-152.31436768 75.47976074 -153.34602051 75.88823242 -154.40893555 76.30908203 C-157.19710827 77.42790293 -157.19710827 77.42790293 -160.04443359 79.45410156 C-162.23193359 79.07910156 -162.23193359 79.07910156 -164.04443359 78.45410156 C-154.4637116 73.05544076 -144.89657507 67.74819034 -134.96240234 63.02441406 C-132.01032997 61.55862975 -132.01032997 61.55862975 -129.63037109 59.45800781 C-126.48608942 57.021427 -123.16537798 55.6610225 -119.48193359 54.26660156 C-118.82257813 54.00685547 -118.16322266 53.74710938 -117.48388672 53.47949219 C-114.36461046 52.26626614 -111.28887171 51.25584493 -108.04443359 50.45410156 C-107.21943359 49.95910156 -106.39443359 49.46410156 -105.54443359 48.95410156 C-103.04443359 47.45410156 -103.04443359 47.45410156 -101.28662109 47.01660156 C-97.16081431 45.98155596 -93.27328468 44.197339 -89.33349609 42.61035156 C-86.04443359 41.45410156 -86.04443359 41.45410156 -82.94287109 40.98535156 C-80.00974941 40.62413663 -80.00974941 40.62413663 -77.66552734 39.02050781 C-74.31565114 37.01856987 -70.87142379 36.24097122 -67.10693359 35.39160156 C-65.72228293 35.06967998 -64.33815674 34.74549333 -62.95458984 34.41894531 C-62.29289795 34.26288818 -61.63120605 34.10683105 -60.94946289 33.94604492 C-59.17447026 33.48768145 -57.43079722 32.91246138 -55.69287109 32.32910156 C-53.04443359 31.45410156 -53.04443359 31.45410156 -50.60693359 31.51660156 C-47.71501993 31.44606708 -45.92062093 30.46074253 -43.34130859 29.25097656 C-39.11634288 27.78517213 -34.67297448 27.42989101 -30.25146484 26.88378906 C-27.76295975 26.55037181 -25.45349326 26.13557254 -23.04443359 25.45410156 C-22.92068359 24.38160156 -22.79693359 23.30910156 -22.66943359 22.20410156 C-22.13113173 18.97429037 -21.53325315 17.24563823 -20.04443359 14.45410156 C-19.90005859 13.64972656 -19.75568359 12.84535156 -19.60693359 12.01660156 C-18.65804946 7.69390718 -16.9130422 5.19636225 -13.55892944 2.33013916 C-8.88149345 -0.16667579 -5.21776486 -0.08049444 0 0 Z M-30.04443359 39.45410156 C-30.04443359 39.78410156 -30.04443359 40.11410156 -30.04443359 40.45410156 C-28.39443359 40.45410156 -26.74443359 40.45410156 -25.04443359 40.45410156 C-25.04443359 40.12410156 -25.04443359 39.79410156 -25.04443359 39.45410156 C-26.69443359 39.45410156 -28.34443359 39.45410156 -30.04443359 39.45410156 Z M41.95556641 124.45410156 C42.95556641 127.45410156 42.95556641 127.45410156 42.95556641 127.45410156 Z " fill="#E28A38" transform="translate(294.04443359375,67.5458984375)"/>
<path d="M0 0 C1.89733131 -0.01913956 1.89733131 -0.01913956 3.83299255 -0.03866577 C5.21035611 -0.04172318 6.58772172 -0.04395107 7.96508789 -0.04541016 C9.38228998 -0.05183982 10.79949074 -0.05856831 12.21669006 -0.06558228 C15.18485593 -0.07754599 18.15290548 -0.08126398 21.12109375 -0.08007812 C24.91875221 -0.07987483 28.71566321 -0.10719077 32.51314449 -0.14162254 C35.43945217 -0.16389167 38.36557984 -0.1679157 41.29196358 -0.16685867 C42.6917739 -0.16921409 44.09158923 -0.17803444 45.49131584 -0.19352341 C47.45114331 -0.21318229 49.41119077 -0.20482308 51.37109375 -0.1953125 C53.04177162 -0.19958755 53.04177162 -0.19958755 54.74620056 -0.20394897 C58.45417628 0.40639709 60.11284045 1.65649608 62.75024414 4.29052734 C63.72002327 7.39382055 64.28309058 9.23777809 62.78540039 12.19677734 C61.63986691 14.5137809 61.42590443 16.22588712 61.25024414 18.79052734 C61.02084734 22.13972059 60.33185287 24.33654996 58.75024414 27.29052734 C58.37714515 28.94874507 58.04323437 30.61629749 57.75024414 32.29052734 C57.58524414 32.90927734 57.42024414 33.52802734 57.25024414 34.16552734 C56.54118856 37.17901357 56.16298933 40.22442023 55.75024414 43.29052734 C55.09024414 43.29052734 54.43024414 43.29052734 53.75024414 43.29052734 C53.97711914 43.80615234 54.20399414 44.32177734 54.43774414 44.85302734 C54.82428776 47.8680676 53.79384456 49.4758692 52.51586914 52.15380859 C51.26934619 55.6326252 51.17626289 59.17077911 50.96118164 62.83740234 C50.68287655 66.07398743 49.7015714 68.38787282 48.25024414 71.29052734 C46.4498431 75.38075883 46.22064227 79.41421631 45.96118164 83.83740234 C45.702676 86.84372718 44.7203934 89.3782139 43.75024414 92.22802734 C42.52621542 95.97661531 41.71319482 99.44287465 41.25024414 103.35302734 C40.75024414 107.29052734 40.75024414 107.29052734 39.75024414 110.29052734 C39.44086914 111.23927734 39.13149414 112.18802734 38.81274414 113.16552734 C38.46211914 114.19677734 38.11149414 115.22802734 37.75024414 116.29052734 C37.37899414 117.55896484 37.37899414 117.55896484 37.00024414 118.85302734 C35.27914171 122.20917708 32.95873895 124.38772485 29.75024414 126.29052734 C26.80864742 126.75177962 24.46680879 126.92871627 21.54174805 126.8581543 C20.34074463 126.8592495 20.34074463 126.8592495 19.11547852 126.86036682 C16.48521716 126.85690044 13.8567562 126.81808675 11.22680664 126.77880859 C9.39693163 126.76947703 7.56704409 126.76236254 5.7371521 126.75737 C0.93313796 126.73832713 -3.87011403 126.68924993 -8.67382812 126.6338501 C-13.58054292 126.58259894 -18.4873815 126.55984345 -23.39428711 126.53466797 C-33.01311059 126.48112838 -42.63136972 126.3958486 -52.24975586 126.29052734 C-54.14320791 130.55854169 -55.56646221 133.92049686 -55.68725586 138.60302734 C-56.00654922 143.65619179 -57.38004942 147.485587 -59.40600586 152.08740234 C-60.48400082 154.90216695 -60.31346929 157.29599621 -60.24975586 160.29052734 C-60.93198957 162.65179132 -61.73455597 164.93728321 -62.59350586 167.23974609 C-63.40214372 169.40786898 -63.40214372 169.40786898 -63.24975586 172.29052734 C-62.42475586 172.12552734 -61.59975586 171.96052734 -60.74975586 171.79052734 C-51.02753364 170.40163845 -51.02753364 170.40163845 -47.24975586 172.29052734 C-47.24975586 171.63052734 -47.24975586 170.97052734 -47.24975586 170.29052734 C-44.27975586 170.62052734 -41.30975586 170.95052734 -38.24975586 171.29052734 C-38.24975586 170.63052734 -38.24975586 169.97052734 -38.24975586 169.29052734 C-37.73413086 169.49677734 -37.21850586 169.70302734 -36.68725586 169.91552734 C-34.09677123 170.49070793 -34.09677123 170.49070793 -31.06225586 169.35302734 C-27.82739872 168.45150978 -26.09204476 168.21827179 -22.87475586 168.35302734 C-18.55595713 168.48591346 -15.26680813 167.47784385 -11.29272461 165.84912109 C-8.90425215 165.19605884 -7.56611221 165.50452777 -5.24975586 166.29052734 C-5.24975586 165.63052734 -5.24975586 164.97052734 -5.24975586 164.29052734 C-4.57428711 164.22994141 -3.89881836 164.16935547 -3.20288086 164.10693359 C-2.31084961 164.02314453 -1.41881836 163.93935547 -0.49975586 163.85302734 C0.38196289 163.77181641 1.26368164 163.69060547 2.17211914 163.60693359 C5.74784749 163.16809421 8.93225365 162.23404163 12.37524414 161.16552734 C15.75024414 160.29052734 15.75024414 160.29052734 17.75024414 161.29052734 C18.08024414 160.63052734 18.41024414 159.97052734 18.75024414 159.29052734 C20.82976909 158.81325932 22.91199269 158.34567763 25.00415039 157.92724609 C29.09008336 156.97986761 32.9985494 155.5791505 36.95336914 154.19287109 C39.54935789 153.35533841 42.07355102 152.79437546 44.75024414 152.29052734 C46.7586261 151.64955438 48.75852232 150.98153287 50.75024414 150.29052734 C51.76086914 149.96052734 52.77149414 149.63052734 53.81274414 149.29052734 C58.80950608 147.589502 63.57633389 145.48645046 68.37133789 143.29052734 C70.75024414 142.29052734 70.75024414 142.29052734 73.53149414 141.37255859 C76.61277451 140.33673983 79.6136033 139.19066486 82.62915039 137.97802734 C83.71518555 137.54232422 84.8012207 137.10662109 85.92016602 136.65771484 C87.0397168 136.20654297 88.15926758 135.75537109 89.31274414 135.29052734 C90.99787109 134.61376953 90.99787109 134.61376953 92.71704102 133.92333984 C94.8059823 133.08428797 96.89463853 132.24452577 98.98291016 131.40380859 C100.78736967 130.67788576 102.59519787 129.96026466 104.40673828 129.25219727 C107.60799927 127.93854303 110.59620575 126.26536742 113.62524414 124.60302734 C118.89982092 121.74020939 124.22507673 119.08724859 129.68774414 116.60302734 C134.1897018 114.54531582 138.48018889 112.39961289 142.60961914 109.66162109 C145.52630091 107.79345449 148.54556867 106.11401989 151.56274414 104.41552734 C156.0178615 101.90488246 160.35030454 99.29033114 164.62524414 96.47802734 C168.8885749 93.71159939 172.91673419 91.84089846 177.75024414 90.29052734 C177.42024414 91.61052734 177.09024414 92.93052734 176.75024414 94.29052734 C176.09024414 94.29052734 175.43024414 94.29052734 174.75024414 94.29052734 C174.75024414 94.95052734 174.75024414 95.61052734 174.75024414 96.29052734 C172.32375383 98.0912075 169.90285117 99.76889284 167.37524414 101.41552734 C166.67657227 101.88345703 165.97790039 102.35138672 165.25805664 102.83349609 C160.01707632 106.29052734 160.01707632 106.29052734 157.75024414 106.29052734 C157.75024414 106.95052734 157.75024414 107.61052734 157.75024414 108.29052734 C155.58227539 109.73583984 155.58227539 109.73583984 152.56274414 111.41552734 C146.86627807 114.63790697 141.30367728 118.0189527 135.75805664 121.49365234 C132.81648222 123.25095654 129.81854618 124.76898579 126.75024414 126.29052734 C125.48723118 127.0612636 124.23553976 127.85110678 123.00024414 128.66552734 C117.57850127 132.1128783 111.85616248 135.25522123 105.75024414 137.29052734 C105.09024414 136.96052734 104.43024414 136.63052734 103.75024414 136.29052734 C103.42024414 137.28052734 103.09024414 138.27052734 102.75024414 139.29052734 C100.59234131 140.56807696 98.51096095 141.6669937 96.25024414 142.72802734 C95.29782837 143.18761841 95.29782837 143.18761841 94.32617188 143.65649414 C92.47269517 144.54594654 90.61276668 145.4202091 88.75024414 146.29052734 C87.8646582 146.71076172 86.97907227 147.13099609 86.06665039 147.56396484 C82.82058087 149.06041977 79.77038822 150.2850335 76.31274414 151.22802734 C72.22621372 152.44681712 68.79387014 154.28976005 65.08227539 156.36474609 C62.44565787 157.4114435 61.35826496 157.27977662 58.75024414 156.29052734 C58.75024414 156.95052734 58.75024414 157.61052734 58.75024414 158.29052734 C54.12386445 160.36767741 49.63524002 161.89481424 44.75024414 163.29052734 C43.51347674 163.79304546 42.28403789 164.31399151 41.06274414 164.85302734 C34.70926053 167.61019947 34.70926053 167.61019947 30.75024414 166.29052734 C30.42024414 166.95052734 30.09024414 167.61052734 29.75024414 168.29052734 C25.34439535 170.45025714 21.60927967 171.53467737 16.75024414 172.29052734 C15.84145508 172.74878906 15.84145508 172.74878906 14.91430664 173.21630859 C12.42624046 174.4513595 9.99039716 175.18019406 7.31274414 175.91552734 C6.3859082 176.17591797 5.45907227 176.43630859 4.50415039 176.70458984 C1.75024414 177.29052734 1.75024414 177.29052734 -0.87866211 177.28662109 C-4.39670931 177.29241689 -7.06702072 178.86966344 -10.24975586 180.29052734 C-12.68384157 180.88552607 -14.75420917 181.29052734 -17.24975586 181.29052734 C-23.126771 181.69524955 -23.126771 181.69524955 -28.74975586 183.29052734 C-31.88023262 184.54271805 -34.82089711 184.76490605 -38.16381836 185.04443359 C-40.44106904 185.24157768 -40.44106904 185.24157768 -43.24975586 186.29052734 C-43.90975586 186.29052734 -44.56975586 186.29052734 -45.24975586 186.29052734 C-46.64644943 186.44982437 -48.04217893 186.61764346 -49.43725586 186.79052734 C-52.34781107 187.13513708 -54.92553214 187.26722471 -57.87475586 187.16552734 C-62.31593049 187.33001529 -64.47773896 187.87643653 -68.24975586 190.29052734 C-69.11161196 193.75247639 -69.11161196 193.75247639 -69.15209961 196.19287109 C-69.3008212 199.38741079 -70.3190216 202.23978728 -71.24975586 205.29052734 C-71.7759638 207.18487594 -72.29643779 209.08082332 -72.81225586 210.97802734 C-73.06104492 211.88939453 -73.30983398 212.80076172 -73.56616211 213.73974609 C-73.79174805 214.58150391 -74.01733398 215.42326172 -74.24975586 216.29052734 C-74.43924805 216.99048828 -74.62874023 217.69044922 -74.82397461 218.41162109 C-75.3506937 220.52040723 -75.3506937 220.52040723 -75.49975586 223.66552734 C-76.47433291 228.37598308 -77.82457261 229.94318917 -81.24975586 233.29052734 C-85.04906721 235.20097068 -88.18800289 235.55101052 -92.41357422 235.58105469 C-93.63511703 235.59381439 -94.85665985 235.6065741 -96.11521912 235.61972046 C-97.42676468 235.62194611 -98.73831024 235.62417175 -100.08959961 235.62646484 C-101.45813637 235.63289761 -102.82667177 235.63962632 -104.19520569 235.64663696 C-107.05904325 235.65858839 -109.92276037 235.66231991 -112.78662109 235.66113281 C-116.44628052 235.66092953 -120.10516424 235.68824988 -123.76463985 235.72267723 C-126.58976248 235.74497264 -129.41469901 235.7489696 -132.23990059 235.74791336 C-134.24177427 235.75140326 -136.24358988 235.77304563 -138.24534607 235.79501343 C-149.63748712 235.73777567 -149.63748712 235.73777567 -154.24975586 231.29052734 C-156.4693574 225.07062698 -153.1467709 216.30354291 -151.24975586 210.29052734 C-150.88624023 209.63697266 -150.52272461 208.98341797 -150.14819336 208.31005859 C-148.93634064 205.58602443 -149.24250598 203.26297927 -149.24975586 200.29052734 C-148.70206749 197.85517517 -148.073294 195.43697205 -147.37475586 193.04052734 C-147.02670898 191.81849609 -146.67866211 190.59646484 -146.32006836 189.33740234 C-145.24975586 186.29052734 -145.24975586 186.29052734 -143.24975586 184.29052734 C-140.94441166 176.9197709 -140.00594779 169.9704814 -140.24975586 162.29052734 C-139.88256836 160.48193359 -139.88256836 160.48193359 -139.24975586 158.29052734 C-138.94038086 157.19740234 -138.63100586 156.10427734 -138.31225586 154.97802734 C-137.60392253 152.51969401 -136.89558919 150.06136068 -136.18725586 147.60302734 C-135.66472257 145.75674304 -135.15425403 143.90651647 -134.69116211 142.04443359 C-134.28067441 140.4133807 -133.73854126 138.81702643 -133.18725586 137.22802734 C-132.09773577 134.32811009 -132.09773577 134.32811009 -132.24975586 131.29052734 C-131.77596596 127.50020814 -131.40006921 125.51599738 -129.24975586 122.29052734 C-129.18788086 121.19740234 -129.12600586 120.10427734 -129.06225586 118.97802734 C-128.08025844 114.52126984 -126.7333919 113.3298477 -123.29778862 110.54803085 C-119.87472508 108.4462508 -116.77088341 108.45354056 -112.8359375 108.51757812 C-112.02536896 108.50694839 -111.21480042 108.49631866 -110.37966919 108.48536682 C-107.72244109 108.45744633 -105.06721809 108.47133942 -102.40991211 108.48583984 C-100.55901871 108.47458298 -98.70813958 108.4606994 -96.85728455 108.44430542 C-92.00249944 108.4083244 -87.14834482 108.40788666 -82.29345703 108.41497803 C-77.33281229 108.41589208 -72.37240238 108.38301618 -67.41186523 108.35302734 C-57.69109605 108.29921869 -47.97065756 108.28297683 -38.24975586 108.29052734 C-38.10666992 107.04271484 -37.96358398 105.79490234 -37.81616211 104.50927734 C-37.40279717 100.90443713 -36.52798232 97.69913123 -35.24975586 94.29052734 C-34.58975586 94.29052734 -33.92975586 94.29052734 -33.24975586 94.29052734 C-33.43538086 93.40365234 -33.62100586 92.51677734 -33.81225586 91.60302734 C-34.2301807 88.43873924 -34.05753328 86.34213092 -33.24975586 83.29052734 C-32.58975586 83.29052734 -31.92975586 83.29052734 -31.24975586 83.29052734 C-31.55913086 82.48615234 -31.55913086 82.48615234 -31.87475586 81.66552734 C-32.38472253 78.43573842 -31.34998918 76.34673101 -30.24975586 73.29052734 C-30.08475586 72.30052734 -29.91975586 71.31052734 -29.74975586 70.29052734 C-29.24975586 67.29052734 -29.24975586 67.29052734 -28.24975586 64.41552734 C-27.05282178 60.67510833 -26.65350614 57.19344672 -26.24975586 53.29052734 C-25.58975586 53.29052734 -24.92975586 53.29052734 -24.24975586 53.29052734 C-24.29100586 52.32115234 -24.33225586 51.35177734 -24.37475586 50.35302734 C-24.38249665 46.53681755 -23.65551479 43.07216885 -22.75366211 39.37646484 C-22.34789027 37.69675816 -22.03384118 35.99503926 -21.74975586 34.29052734 C-21.58475586 33.63052734 -21.41975586 32.97052734 -21.24975586 32.29052734 C-20.25975586 31.79552734 -20.25975586 31.79552734 -19.24975586 31.29052734 C-18.81772719 28.57516827 -18.81772719 28.57516827 -18.68725586 25.41552734 C-18.49089262 22.0893745 -18.30599978 19.45925909 -17.24975586 16.29052734 C-17.04737305 15.60216797 -16.84499023 14.91380859 -16.63647461 14.20458984 C-15.01571628 8.89864357 -13.41343019 4.31207306 -8.51145935 1.17977905 C-5.57865293 0.02666454 -3.15137623 0.02158584 0 0 Z M-29.24975586 70.29052734 C-28.24975586 72.29052734 -28.24975586 72.29052734 -28.24975586 72.29052734 Z " fill="#74B546" transform="translate(258.249755859375,200.70947265625)"/>
<path d="M0 0 C0.33 0.66 0.66 1.32 1 2 C0.67 2.66 0.34 3.32 0 4 C-0.66 4 -1.32 4 -2 4 C-2 4.66 -2 5.32 -2 6 C-4.42649031 7.80068015 -6.84739297 9.47836549 -9.375 11.125 C-10.42300781 11.82689453 -10.42300781 11.82689453 -11.4921875 12.54296875 C-16.73316782 16 -16.73316782 16 -19 16 C-19 16.66 -19 17.32 -19 18 C-21.16796875 19.4453125 -21.16796875 19.4453125 -24.1875 21.125 C-29.88396607 24.34737963 -35.44656686 27.72842535 -40.9921875 31.203125 C-43.93376192 32.9604292 -46.93169796 34.47845844 -50 36 C-51.26301296 36.77073625 -52.51470438 37.56057944 -53.75 38.375 C-59.17174287 41.82235096 -64.89408166 44.96469389 -71 47 C-71.66 46.67 -72.32 46.34 -73 46 C-73.33 46.99 -73.66 47.98 -74 49 C-76.15790283 50.27754961 -78.23928319 51.37646635 -80.5 52.4375 C-81.13494385 52.74389404 -81.7698877 53.05028809 -82.42407227 53.3659668 C-84.27754897 54.25541919 -86.13747746 55.12968175 -88 56 C-88.88558594 56.42023438 -89.77117187 56.84046875 -90.68359375 57.2734375 C-93.92966327 58.76989243 -96.97985592 59.99450616 -100.4375 60.9375 C-104.52403042 62.15628977 -107.956374 63.99923271 -111.66796875 66.07421875 C-114.30458627 67.12091616 -115.39197919 66.98924927 -118 66 C-118 66.66 -118 67.32 -118 68 C-122.62637969 70.07715006 -127.11500412 71.60428689 -132 73 C-133.2367674 73.50251812 -134.46620625 74.02346417 -135.6875 74.5625 C-142.04098361 77.31967213 -142.04098361 77.31967213 -146 76 C-146.33 76.66 -146.66 77.32 -147 78 C-151.40584879 80.1597298 -155.14096447 81.24415003 -160 82 C-160.90878906 82.45826172 -160.90878906 82.45826172 -161.8359375 82.92578125 C-164.32400368 84.16083215 -166.75984698 84.88966671 -169.4375 85.625 C-170.82775391 86.01558594 -170.82775391 86.01558594 -172.24609375 86.4140625 C-175 87 -175 87 -177.62890625 86.99609375 C-181.14695345 87.00188954 -183.81726486 88.5791361 -187 90 C-189.43408571 90.59499873 -191.50445331 91 -194 91 C-199.87701514 91.40472221 -199.87701514 91.40472221 -205.5 93 C-208.63047676 94.25219071 -211.57114125 94.47437871 -214.9140625 94.75390625 C-217.19131318 94.95105034 -217.19131318 94.95105034 -220 96 C-220.66 96 -221.32 96 -222 96 C-223.39669357 96.15929703 -224.79242307 96.32711611 -226.1875 96.5 C-230.14847835 96.95703596 -234.01199629 97 -238 97 C-239.093125 97.185625 -240.18625 97.37125 -241.3125 97.5625 C-244 98 -244 98 -246 97 C-245.71743908 95.06115111 -245.4236207 93.12394039 -245.125 91.1875 C-244.96257812 90.10855469 -244.80015625 89.02960938 -244.6328125 87.91796875 C-244 85 -244 85 -242 82 C-239 81.875 -239 81.875 -236 82 C-235.01 81.505 -235.01 81.505 -234 81 C-232.125 80.8671875 -232.125 80.8671875 -230 80.875 C-228.948125 80.87113281 -228.948125 80.87113281 -227.875 80.8671875 C-226 81 -226 81 -224 82 C-224 81.34 -224 80.68 -224 80 C-221.03 80.33 -218.06 80.66 -215 81 C-215 80.34 -215 79.68 -215 79 C-214.484375 79.20625 -213.96875 79.4125 -213.4375 79.625 C-210.84701537 80.20018058 -210.84701537 80.20018058 -207.8125 79.0625 C-204.57764286 78.16098244 -202.8422889 77.92774444 -199.625 78.0625 C-195.30620127 78.19538611 -192.01705227 77.1873165 -188.04296875 75.55859375 C-185.65449629 74.90553149 -184.31635635 75.21400043 -182 76 C-182 75.34 -182 74.68 -182 74 C-181.32453125 73.93941406 -180.6490625 73.87882812 -179.953125 73.81640625 C-179.06109375 73.73261719 -178.1690625 73.64882813 -177.25 73.5625 C-175.92742187 73.44068359 -175.92742187 73.44068359 -174.578125 73.31640625 C-171.00239665 72.87756686 -167.81799049 71.94351429 -164.375 70.875 C-161 70 -161 70 -159 71 C-158.67 70.34 -158.34 69.68 -158 69 C-155.92047505 68.52273198 -153.83825145 68.05515029 -151.74609375 67.63671875 C-147.66016078 66.68934027 -143.75169474 65.28862316 -139.796875 63.90234375 C-137.20088625 63.06481107 -134.67669312 62.50384812 -132 62 C-129.99161804 61.35902703 -127.99172182 60.69100553 -126 60 C-124.989375 59.67 -123.97875 59.34 -122.9375 59 C-117.94073806 57.29897466 -113.17391025 55.19592312 -108.37890625 53 C-106 52 -106 52 -103.21875 51.08203125 C-100.13746963 50.04621248 -97.13664084 48.90013752 -94.12109375 47.6875 C-93.03505859 47.25179687 -91.94902344 46.81609375 -90.83007812 46.3671875 C-89.71052734 45.91601562 -88.59097656 45.46484375 -87.4375 45 C-85.75237305 44.32324219 -85.75237305 44.32324219 -84.03320312 43.6328125 C-81.94426184 42.79376062 -79.85560561 41.95399842 -77.76733398 41.11328125 C-75.96287447 40.38735841 -74.15504627 39.66973732 -72.34350586 38.96166992 C-69.14224487 37.64801568 -66.15403839 35.97484008 -63.125 34.3125 C-57.85042322 31.44968205 -52.52516741 28.79672124 -47.0625 26.3125 C-42.56054234 24.25478847 -38.27005525 22.10908555 -34.140625 19.37109375 C-31.22393343 17.50292087 -28.20458424 15.82366746 -25.1875 14.125 C-20.72102237 11.60492864 -16.36170322 8.98849603 -12.0625 6.1875 C-8.1419034 3.64723179 -4.36666305 1.64962826 0 0 Z " fill="#2D97C9" transform="translate(435,291)"/>
<path d="M0 0 C-1.01949858 2.7987036 -1.73183289 3.84529356 -4.35083008 5.35620117 C-5.31400146 5.74783447 -6.27717285 6.13946777 -7.26953125 6.54296875 C-8.32333984 6.97673828 -9.37714844 7.41050781 -10.46289062 7.85742188 C-11.56826172 8.29634766 -12.67363281 8.73527344 -13.8125 9.1875 C-15.4531543 9.86329102 -15.4531543 9.86329102 -17.12695312 10.55273438 C-21.74037641 12.42790398 -26.07426921 14.15989641 -31 15 C-26.5793761 11.10477812 -21.69863516 8.55790972 -16.5 5.875 C-15.65824219 5.43285156 -14.81648438 4.99070313 -13.94921875 4.53515625 C-2.67905503 -1.33952752 -2.67905503 -1.33952752 0 0 Z " fill="#CC8948" transform="translate(161,132)"/>
<path d="M0 0 C0 0.99 0 1.98 0 3 C-0.99 3 -1.98 3 -3 3 C-2.01 2.01 -1.02 1.02 0 0 Z M-4 3 C-3.01 3.99 -2.02 4.98 -1 6 C-2.32 7.32 -3.64 8.64 -5 10 C-5.99 9.34 -6.98 8.68 -8 8 C-6.68 6.35 -5.36 4.7 -4 3 Z " fill="#ED902E" transform="translate(405,291)"/>
<path d="M0 0 C1 4 1 4 1 4 Z " fill="#54C43A" transform="translate(103,426)"/>
<path d="M0 0 C4 1 4 1 4 1 Z " fill="#2A9BD4" transform="translate(198,388)"/>
<path d="M0 0 C1 4 1 4 1 4 Z " fill="#FF8734" transform="translate(415,183)"/>
<path d="M0 0 C3 1 3 1 3 1 Z " fill="#27B4D8" transform="translate(232,383)"/>
<path d="" fill="#38C638" transform="translate(0,0)"/>
<path d="" fill="#FF8820" transform="translate(0,0)"/>
<path d="" fill="#FF9B2B" transform="translate(0,0)"/>
<path d="M0 0 C3 1 3 1 3 1 Z " fill="#FFC510" transform="translate(234,113)"/>
<path d="" fill="#80A658" transform="translate(0,0)"/>
<path d="" fill="#6AB847" transform="translate(0,0)"/>
<path d="M0 0 C2 1 2 1 2 1 Z " fill="#53ABAB" transform="translate(94,383)"/>
<path d="M0 0 C2 1 2 1 2 1 Z " fill="#22A0DD" transform="translate(255,378)"/>
<path d="M0 0 C2 1 2 1 2 1 Z " fill="#3A90C4" transform="translate(237,368)"/>
<path d="M0 0 C2 1 2 1 2 1 Z " fill="#2994D5" transform="translate(304,363)"/>
<path d="M0 0 C2 1 2 1 2 1 Z " fill="#28B1D6" transform="translate(110,363)"/>
<path d="" fill="#66BC43" transform="translate(0,0)"/>
<path d="" fill="#55AA55" transform="translate(0,0)"/>
<path d="" fill="#50AE50" transform="translate(0,0)"/>
<path d="" fill="#7F9966" transform="translate(0,0)"/>
<path d="" fill="#4BB44B" transform="translate(0,0)"/>
<path d="M0 0 C2 1 2 1 2 1 Z " fill="#4BB4B4" transform="translate(103,298)"/>
<path d="" fill="#32CC32" transform="translate(0,0)"/>
<path d="" fill="#FF9922" transform="translate(0,0)"/>
<path d="" fill="#FF8B1E" transform="translate(0,0)"/>
<path d="" fill="#809966" transform="translate(0,0)"/>
<path d="" fill="#FF851D" transform="translate(0,0)"/>
<path d="" fill="#1E8BE0" transform="translate(0,0)"/>
<path d="" fill="#FFB04F" transform="translate(0,0)"/>
<path d="" fill="#44BB44" transform="translate(0,0)"/>
<path d="" fill="#5BBD41" transform="translate(0,0)"/>
<path d="" fill="#FFAA55" transform="translate(0,0)"/>
<path d="" fill="#4FB0B0" transform="translate(0,0)"/>
<path d="" fill="#FF9522" transform="translate(0,0)"/>
<path d="" fill="#73AB54" transform="translate(0,0)"/>
<path d="" fill="#FF7F1A" transform="translate(0,0)"/>
<path d="" fill="#FFAA55" transform="translate(0,0)"/>
<path d="" fill="#1D80E2" transform="translate(0,0)"/>
<path d="" fill="#FFAC53" transform="translate(0,0)"/>
<path d="" fill="#40BE40" transform="translate(0,0)"/>
<path d="" fill="#FFAB54" transform="translate(0,0)"/>
<path d="" fill="#4897B6" transform="translate(0,0)"/>
<path d="M0 0 C2 1 2 1 2 1 Z " fill="#FFC81C" transform="translate(254,193)"/>
<path d="" fill="#2F97D0" transform="translate(0,0)"/>
<path d="" fill="#FF8E36" transform="translate(0,0)"/>
<path d="" fill="#2295DC" transform="translate(0,0)"/>
<path d="" fill="#1A80E4" transform="translate(0,0)"/>
<path d="" fill="#FFAB54" transform="translate(0,0)"/>
<path d="" fill="#FFAA55" transform="translate(0,0)"/>
<path d="" fill="#53ACAC" transform="translate(0,0)"/>
<path d="" fill="#54ABAB" transform="translate(0,0)"/>
<path d="" fill="#FF9922" transform="translate(0,0)"/>
<path d="" fill="#1B80E3" transform="translate(0,0)"/>
<path d="M0 0 C2 1 2 1 2 1 Z " fill="#FF952A" transform="translate(169,133)"/>
<path d="" fill="#FFAE50" transform="translate(0,0)"/>
<path d="M0 0 C2 1 2 1 2 1 Z " fill="#FFB14E" transform="translate(214,118)"/>
<path d="" fill="#4993B5" transform="translate(0,0)"/>
<path d="M0 0 C2 1 2 1 2 1 Z " fill="#FFB549" transform="translate(370,113)"/>
<path d="" fill="#2699D9" transform="translate(0,0)"/>
<path d="M0 0 C2 1 2 1 2 1 Z " fill="#FFAE28" transform="translate(397,98)"/>
<path d="M0 0 C2 1 2 1 2 1 Z " fill="#FF8018" transform="translate(244,98)"/>
<path d="" fill="#4FB0B0" transform="translate(0,0)"/>
<path d="M0 0 C2 1 2 1 2 1 Z " fill="#FF892C" transform="translate(375,93)"/>
<path d="M0 0 C2 1 2 1 2 1 Z " fill="#FFB44B" transform="translate(379,73)"/>
<path d="" fill="#52ADAD" transform="translate(0,0)"/>
<path d="" fill="#52ADAD" transform="translate(0,0)"/>
<path d="" fill="#44BBBB" transform="translate(0,0)"/>
<path d="" fill="#36C9C9" transform="translate(0,0)"/>
<path d="" fill="#208FDF" transform="translate(0,0)"/>
<path d="" fill="#43BCBC" transform="translate(0,0)"/>
<path d="" fill="#4BA5B4" transform="translate(0,0)"/>
<path d="" fill="#4BA5B4" transform="translate(0,0)"/>
<path d="" fill="#55AAAA" transform="translate(0,0)"/>
<path d="" fill="#3DC2C2" transform="translate(0,0)"/>
<path d="" fill="#659A65" transform="translate(0,0)"/>
<path d="" fill="#55AAAA" transform="translate(0,0)"/>
<path d="" fill="#FF8000" transform="translate(0,0)"/>
<path d="" fill="#51A8AE" transform="translate(0,0)"/>
<path d="" fill="#55AAAA" transform="translate(0,0)"/>
<path d="" fill="#FF8500" transform="translate(0,0)"/>
<path d="" fill="#FFFF00" transform="translate(0,0)"/>
<path d="" fill="#FF8000" transform="translate(0,0)"/>
<path d="" fill="#00FFFF" transform="translate(0,0)"/>
<path d="" fill="#007FFF" transform="translate(0,0)"/>
<path d="" fill="#3399CC" transform="translate(0,0)"/>
<path d="" fill="#FFD22D" transform="translate(0,0)"/>
<path d="" fill="#FF8F20" transform="translate(0,0)"/>
<path d="" fill="#FF962D" transform="translate(0,0)"/>
<path d="" fill="#FFAB54" transform="translate(0,0)"/>
<path d="" fill="#FF883C" transform="translate(0,0)"/>
<path d="" fill="#40A0BF" transform="translate(0,0)"/>
<path d="" fill="#FFD22D" transform="translate(0,0)"/>
</svg>
